<?xml version="1.0" encoding="UTF-8"?>
<svg width="78px" height="68px" viewBox="0 0 78 68" version="1.1" xmlns="http://www.w3.org/2000/svg" xmlns:xlink="http://www.w3.org/1999/xlink">
    <!-- Generator: Sketch 45.2 (43514) - http://www.bohemiancoding.com/sketch -->
    <title>Shape</title>
    <desc>Created with Sketch.</desc>
    <defs></defs>
    <g id="Page-1" stroke="none" stroke-width="1" fill="none" fill-rule="evenodd">
        <path d="M77.1,32.5 L62.66,32.5 L52.13,14.26 L59.35,1.76 L77.1,32.5 Z M60.06,34 L49.53,52.24 L28.47,52.24 L17.94,34 L28.47,15.76 L49.53,15.76 L60.06,34 Z M56.75,0.26 L49.53,12.76 L28.47,12.76 L21.25,0.26 L56.75,0.26 Z M18.65,1.76 L25.87,14.26 L15.34,32.5 L0.9,32.5 L18.65,1.76 Z M0.9,35.5 L15.34,35.5 L25.87,53.74 L18.65,66.24 L0.9,35.5 Z M21.25,67.74 L28.47,55.24 L49.53,55.24 L56.75,67.74 L21.25,67.74 Z M59.35,66.24 L52.13,53.74 L62.66,35.5 L77.1,35.5 L59.35,66.24 Z" id="Shape" fill="#F5D327" fill-rule="nonzero"></path>
    </g>
</svg>