<?xml version="1.0" encoding="UTF-8" standalone="no"?>
<svg width="429px" height="429px" viewBox="0 0 429 429" version="1.1" xmlns="http://www.w3.org/2000/svg" xmlns:xlink="http://www.w3.org/1999/xlink">
    <!-- Generator: Sketch 3.6.1 (26313) - http://www.bohemiancoding.com/sketch -->
    <title>LOGO</title>
    <desc>Created with Sketch.</desc>
    <defs></defs>
    <g id="Welcome" stroke="none" stroke-width="1" fill="none" fill-rule="evenodd">
        <g id="Desktop-HD-Home" transform="translate(-503.000000, -297.000000)" fill="#FFCC66">
            <g id="l" transform="translate(173.000000, 100.000000)">
                <g id="LOGO" transform="translate(544.500000, 411.500000) rotate(-336.000000) translate(-544.500000, -411.500000) translate(330.000000, 197.000000)">
                    <path d="M22.0727701,214.24686 C22.0727701,166.818245 39.2164096,123.407294 67.6362763,89.8375331 L52.4477095,74.6467721 C20.1791363,112.128872 0.663517548,160.913531 0.663517548,214.24686 C0.663517548,267.591161 20.1791363,316.369236 52.4477095,353.84256 L67.6362763,338.658381 C39.2164096,305.084232 22.0727701,261.675475 22.0727701,214.24686" id="Fill-1"></path>
                    <path d="M214.750558,21.5712667 C262.179173,21.5712667 305.590124,38.7171004 339.164273,67.1303844 L354.35284,51.9418176 C316.868545,19.6732444 268.09047,0.162014113 214.750558,0.162014113 C161.41284,0.162014113 112.639153,19.6732444 75.1504698,51.9418176 L90.3456193,67.1303844 C123.913186,38.7171004 167.324137,21.5712667 214.750558,21.5712667" id="Fill-3"></path>
                    <path d="M407.43054,214.24686 C407.43054,261.675475 390.2869,305.084232 361.867033,338.658381 L377.057794,353.84256 C409.324173,316.369236 428.841986,267.591161 428.841986,214.24686 C428.841986,160.913531 409.324173,112.128872 377.057794,74.6467721 L361.867033,89.8375331 C390.2869,123.407294 407.43054,166.818245 407.43054,214.24686" id="Fill-6"></path>
                    <path d="M214.750558,406.920479 C167.324137,406.920479 123.913186,389.785616 90.3456193,361.363555 L75.1504698,376.547734 C112.639153,408.822889 161.41284,428.336314 214.750558,428.336314 C268.09047,428.336314 316.868545,408.822889 354.35284,376.547734 L339.164273,361.363555 C305.590124,389.785616 262.179173,406.920479 214.750558,406.920479" id="Fill-8"></path>
                    <path d="M308.522514,83.9497144 L297.770711,102.567887 C331.84076,127.93117 353.903897,168.511544 353.903897,214.25059 C353.903897,259.983053 331.84076,300.567817 297.770711,325.926711 L308.522514,344.551466 C348.969039,315.38775 375.310956,267.910862 375.310956,214.25059 C375.310956,160.588124 348.969039,113.102459 308.522514,83.9497144" id="Fill-10"></path>
                    <path d="M76.5460099,230.304129 L54.9897428,230.304129 C63.047012,311.436353 131.498692,374.808355 214.750558,374.808355 C238.277257,374.808355 260.594927,369.708929 280.724935,360.622559 L269.96655,341.989026 C253.031363,349.322195 234.373695,353.405685 214.750558,353.405685 C143.332258,353.405685 84.513315,299.591816 76.5460099,230.304129 Z" id="Fill-12"></path>
                    <path d="M214.750558,75.0913262 C234.373695,75.0913262 253.031363,79.1726227 269.96655,86.5014024 L280.724935,67.8766473 C260.594927,58.7858885 238.277257,53.6820736 214.750558,53.6820736 C131.498692,53.6820736 63.047012,117.054076 54.9897428,198.188494 L76.5460099,198.188494 C84.513315,128.907389 143.332258,75.0913262 214.750558,75.0913262" id="Fill-14"></path>
                    <path d="M129.670008,223.953982 C124.930438,182.416917 150.756707,144.460859 189.263519,132.504416 L186.808159,110.908653 C136.511665,124.447147 102.318739,173.067237 108.401187,226.383012 C114.481441,279.692205 158.741566,319.364162 210.791261,321.220493 L208.331512,299.633507 C168.115382,296.660304 134.407384,265.48666 129.670008,223.953982" id="Fill-16"></path>
                    <path d="M221.172675,128.861091 C261.393194,131.838682 295.092415,163.007938 299.834179,204.549392 C304.571555,246.075487 278.751869,284.033739 240.236279,295.99457 L242.700417,317.577168 C292.988134,304.05184 327.183254,255.427361 321.105195,202.118169 C315.02494,148.802393 270.762622,109.130436 218.710732,107.269716 L221.172675,128.861091 Z" id="Fill-18"></path>
                </g>
            </g>
        </g>
    </g>
</svg>