<?xml version="1.0" encoding="UTF-8"?>
<svg width="246px" height="59px" viewBox="0 0 246 59" version="1.1" xmlns="http://www.w3.org/2000/svg" xmlns:xlink="http://www.w3.org/1999/xlink">
    <!-- Generator: Sketch 52.2 (67145) - http://www.bohemiancoding.com/sketch -->
    <title>logo-innpact</title>
    <desc>Created with Sketch.</desc>
    <defs>
        <polygon id="path-1" points="0.3 0.17 235.791256 0.17 235.791256 14.94 0.3 14.94"></polygon>
    </defs>
    <g id="logo-innpact" stroke="none" stroke-width="1" fill="none" fill-rule="evenodd">
        <g id="Group-10" transform="translate(0.000000, 44.000000)">
            <mask id="mask-2" fill="white">
                <use xlink:href="#path-1"></use>
            </mask>
            <g id="Clip-2"></g>
            <polyline id="Fill-1" fill="#FFFFFF" mask="url(#mask-2)" points="0.3 3.573 1.528 3.573 5.633 13.515 9.731 3.573 10.958 3.573 6.248 14.819 5.016 14.819 0.3 3.573"></polyline>
            <path d="M42.93,8.733 C42.904,5.955 41.088,4.407 38.377,4.407 C36.051,4.407 34.048,5.981 33.792,8.733 L42.93,8.733 Z M32.651,9.189 C32.651,5.817 35.208,3.384 38.377,3.384 C41.544,3.384 44.363,5.319 43.936,9.717 L33.792,9.717 C34.024,12.359 36.051,13.882 38.377,13.882 C39.862,13.882 41.592,13.294 42.425,12.185 L43.232,12.815 C42.128,14.258 40.17,14.975 38.377,14.975 C35.208,14.975 32.651,12.772 32.651,9.189 Z" id="Fill-3" fill="#FFFFFF" mask="url(#mask-2)"></path>
            <path d="M68.402,3.573 L68.402,5.571 C69.271,4.021 70.842,3.384 72.414,3.361 C75.423,3.361 77.493,5.201 77.493,8.329 L77.493,14.819 L76.377,14.819 L76.377,8.344 C76.377,5.798 74.801,4.428 72.371,4.456 C70.042,4.482 68.428,6.231 68.428,8.564 L68.428,14.819 L67.31,14.819 L67.31,3.573 L68.402,3.573" id="Fill-4" fill="#FFFFFF" mask="url(#mask-2)"></path>
            <path d="M102.99,0.17 L102.99,3.573 L106.822,3.573 L106.822,4.496 L102.99,4.496 L102.99,11.354 C102.99,12.885 103.313,13.957 105.065,13.957 C105.616,13.957 106.229,13.773 106.795,13.495 L107.187,14.412 C106.479,14.748 105.776,14.975 105.065,14.975 C102.676,14.975 101.902,13.569 101.902,11.354 L101.902,4.496 L99.503,4.496 L99.503,3.573 L101.902,3.573 L101.902,0.279 L102.99,0.17" id="Fill-5" fill="#FFFFFF" mask="url(#mask-2)"></path>
            <path d="M138.946,14.819 L138.946,12.796 C138.077,14.347 136.503,14.975 134.939,15 C131.928,15 129.862,13.159 129.862,10.032 L129.862,3.548 L130.969,3.548 L130.969,10.015 C130.969,12.564 132.547,13.925 134.981,13.908 C137.308,13.882 138.926,12.128 138.926,9.803 L138.926,3.548 L140.042,3.548 L140.042,14.819 L138.946,14.819" id="Fill-6" fill="#FFFFFF" mask="url(#mask-2)"></path>
            <path d="M164.516,3.573 L164.564,5.571 C165.264,4.046 166.859,3.459 168.3,3.459 C169.137,3.427 169.964,3.653 170.712,4.112 L170.209,5.023 C169.621,4.66 168.959,4.496 168.3,4.496 C166.206,4.525 164.583,6.208 164.583,8.264 L164.583,14.819 L163.467,14.819 L163.467,3.573 L164.516,3.573" id="Fill-7" fill="#FFFFFF" mask="url(#mask-2)"></path>
            <path d="M202.521,8.733 C202.503,5.955 200.68,4.407 197.967,4.407 C195.638,4.407 193.64,5.981 193.386,8.733 L202.521,8.733 Z M192.25,9.189 C192.25,5.817 194.803,3.384 197.967,3.384 C201.126,3.384 203.958,5.319 203.52,9.717 L193.386,9.717 C193.616,12.359 195.638,13.882 197.967,13.882 C199.448,13.882 201.182,13.294 202.016,12.185 L202.815,12.815 C201.718,14.258 199.764,14.975 197.967,14.975 C194.803,14.975 192.25,12.772 192.25,9.189 Z" id="Fill-8" fill="#FFFFFF" mask="url(#mask-2)"></path>
            <path d="M234.627,5.62 C233.484,4.614 232.375,4.428 231.113,4.428 C229.364,4.407 227.678,5.064 227.724,6.503 C227.775,8.008 229.729,8.304 231.14,8.564 C233.148,8.891 235.899,9.249 235.788,11.861 C235.721,14.347 233.148,15 231.165,15 C229.189,15 227.221,14.258 226.241,12.741 L227.068,12.013 C228.002,13.369 229.688,13.925 231.19,13.925 C232.55,13.925 234.627,13.569 234.697,11.792 C234.738,10.17 232.876,9.857 231.031,9.556 C228.839,9.189 226.674,8.782 226.655,6.529 C226.626,4.318 228.839,3.361 231.113,3.384 C232.762,3.384 234.193,3.834 235.311,4.886 L234.627,5.62" id="Fill-9" fill="#FFFFFF" mask="url(#mask-2)"></path>
        </g>
        <polyline id="Fill-11" fill="#FFFFFF" points="152.078 0.867 148.339 0.867 150.181 5.407 159.036 25.461 141.318 25.461 137.339 25.398 132.046 37.189 131.71 37.964 135.859 37.964 139.778 29.108 160.59 29.108 164.549 37.964 168.713 37.964 152.078 0.867"></polyline>
        <polygon id="Fill-12" fill="#FFFFFF" points="0 37.964 3.795 37.964 3.795 0.867 0 0.867"></polygon>
        <polyline id="Fill-13" fill="#FFFFFF" points="42.985 29.686 19.709 1.064 19.55 0.867 17.57 0.867 17.57 37.964 21.419 37.964 21.419 9.188 44.919 37.964 46.791 37.964 46.791 0.867 42.985 0.867 42.985 29.686"></polyline>
        <polyline id="Fill-14" fill="#FFFFFF" points="86.102 29.686 62.821 1.064 62.657 0.867 60.685 0.867 60.685 37.964 64.535 37.964 64.535 9.188 88.037 37.964 89.906 37.964 89.906 0.867 86.102 0.867 86.102 29.686"></polyline>
        <path d="M193.865,4 C197.997,4 201.846,5.575 204.692,8.421 L205.045,8.771 L207.763,6.423 L207.356,6.014 C203.832,2.474 198.912,0.454 193.865,0.454 C188.277,0.454 183.514,2.281 180.097,5.738 C176.613,9.244 174.738,14.178 174.798,19.623 C174.847,28.956 180.763,38.368 193.865,38.368 C198.912,38.368 203.832,36.35 207.356,32.81 L207.754,32.42 L205.116,29.931 L204.755,30.299 C201.89,33.113 197.919,34.728 193.865,34.728 C182.694,34.728 178.635,26.529 178.537,19.503 C178.519,14.978 180.033,10.948 182.796,8.161 C185.508,5.437 189.333,4 193.865,4" id="Fill-15" fill="#FFFFFF"></path>
        <polyline id="Fill-16" fill="#FFFFFF" points="215.179 0.916 215.179 4.458 228.192 4.458 228.192 37.964 232.044 37.964 232.044 4.458 245.064 4.458 245.064 0.916 215.179 0.916"></polyline>
        <path d="M120.078,0.867 L103.742,0.867 L103.742,4.51 L120.078,4.51 C125.89,4.51 128.538,9.024 128.538,13.211 C128.538,15.506 127.778,17.631 126.412,19.213 C124.888,20.981 122.697,21.912 120.078,21.912 L103.742,21.912 L103.742,37.964 L107.597,37.964 L107.597,25.51 L120.078,25.51 C128.514,25.51 132.353,19.116 132.353,13.192 C132.353,7.257 128.514,0.867 120.078,0.867" id="Fill-17" fill="#FFFFFF"></path>
    </g>
</svg>