<?xml version="1.0" encoding="UTF-8"?>
<svg width="650px" height="200px" viewBox="0 0 650 200" version="1.1" xmlns="http://www.w3.org/2000/svg" xmlns:xlink="http://www.w3.org/1999/xlink">
    <!-- Generator: Sketch 45.2 (43514) - http://www.bohemiancoding.com/sketch -->
    <title>Default</title>
    <desc>Created with Sketch.</desc>
    <defs></defs>
    <g id="Horizontal" stroke="none" stroke-width="1" fill="none" fill-rule="evenodd">
        <g id="Default">
            <g id="Logo" transform="translate(27.000000, 24.000000)" fill="#FFFFFF">
                <path d="M7.5293,75.291 C7.5293,91.971 13.5583,107.236 23.5523,119.044 L18.2113,124.385 C6.8633,111.204 0.0003,94.05 0.0003,75.291 C0.0003,56.533 6.8633,39.378 18.2113,26.195 L23.5523,31.537 C13.5583,43.344 7.5293,58.611 7.5293,75.291 Z" id="Fill-1"></path>
                <path d="M75.2911,7.5293 C91.9711,7.5293 107.2381,13.5593 119.0451,23.5513 L124.3871,18.2103 C111.2031,6.8613 94.0491,0.0003 75.2911,0.0003 C56.5331,0.0003 39.3791,6.8613 26.1951,18.2103 L31.5391,23.5513 C43.3441,13.5593 58.6111,7.5293 75.2911,7.5293" id="Fill-3"></path>
                <path d="M143.0528,75.291 C143.0528,91.971 137.0238,107.236 127.0298,119.044 L132.3708,124.385 C143.7188,111.204 150.5818,94.05 150.5818,75.291 C150.5818,56.533 143.7188,39.378 132.3708,26.195 L127.0298,31.537 C137.0238,43.344 143.0528,58.611 143.0528,75.291" id="Fill-5"></path>
                <path d="M75.2911,143.0507 C58.6111,143.0507 43.3441,137.0237 31.5391,127.0297 L26.1951,132.3677 C39.3791,143.7197 56.5331,150.5817 75.2911,150.5817 C94.0491,150.5817 111.2031,143.7197 124.3871,132.3677 L119.0451,127.0297 C107.2381,137.0237 91.9711,143.0507 75.2911,143.0507" id="Fill-7"></path>
                <path d="M108.2676,29.4668 L104.4866,36.0138 C116.4686,44.9348 124.2286,59.2048 124.2286,75.2908 C124.2286,91.3748 116.4686,105.6478 104.4866,114.5668 L108.2676,121.1158 C122.4926,110.8618 131.7576,94.1628 131.7576,75.2908 C131.7576,56.4178 122.4926,39.7198 108.2676,29.4668" id="Fill-9"></path>
                <path d="M75.2911,124.2304 C50.1741,124.2304 29.4881,105.3034 26.6861,80.9374 L19.1051,80.9374 C21.9391,109.4694 46.0121,131.7564 75.2911,131.7564 C83.5641,131.7564 91.4121,129.9624 98.4921,126.7684 L94.7091,120.2144 C88.7541,122.7934 82.1911,124.2304 75.2911,124.2304" id="Fill-11"></path>
                <path d="M75.2911,26.3515 C82.1911,26.3515 88.7541,27.7875 94.7091,30.3645 L98.4921,23.8135 C91.4121,20.6165 83.5641,18.8225 75.2911,18.8225 C46.0121,18.8225 21.9391,41.1085 19.1051,69.6425 L26.6861,69.6425 C29.4881,45.2775 50.1741,26.3515 75.2911,26.3515" id="Fill-13"></path>
                <path d="M45.3692,78.7041 C43.7032,64.0961 52.7852,50.7471 66.3282,46.5421 L65.4632,38.9481 C47.7752,43.7081 35.7502,60.8071 37.8892,79.5581 C40.0272,98.3071 55.5942,112.2581 73.8982,112.9121 L73.0332,105.3201 C58.8902,104.2721 47.0352,93.3101 45.3692,78.7041" id="Fill-15"></path>
                <path d="M77.5489,45.2617 C91.6939,46.3087 103.5469,57.2697 105.2129,71.8787 C106.8789,86.4837 97.7989,99.8337 84.2539,104.0407 L85.1189,111.6307 C102.8069,106.8717 114.8319,89.7737 112.6939,71.0247 C110.5549,52.2747 94.9879,38.3227 76.6839,37.6677 L77.5489,45.2617 Z" id="Fill-17"></path>
            </g>
            <g id="Text" transform="translate(200.000000, 67.000000)" fill="#E9E9E9">
                <polygon id="Fill-35" points="414.805 64.08 422.137 64.08 422.137 0.214 414.805 0.214"></polygon>
                <path d="M399.0391,38.871 C398.2851,31.642 392.4001,26.348 384.5861,26.348 C375.3441,26.348 370.8871,32.903 370.1351,38.871 L399.0391,38.871 Z M405.6781,55.591 C399.7971,62.147 393.5781,65.087 385.9341,65.087 C370.3851,65.087 362.0661,53.827 362.0661,42.145 C362.0661,29.711 370.9731,19.289 384.6721,19.289 C398.1991,19.289 407.6131,29.625 407.6131,45.088 L370.1351,45.088 C371.3091,52.566 377.3591,58.03 385.8481,58.03 C391.2251,58.03 396.0141,55.509 399.8831,50.97 L405.6781,55.591 Z" id="Fill-27"></path>
                <path d="M346.1075,38.871 C345.3495,31.642 339.4685,26.348 331.6545,26.348 C322.4085,26.348 317.9555,32.903 317.1995,38.871 L346.1075,38.871 Z M352.7465,55.591 C346.8655,62.147 340.6425,65.087 332.9985,65.087 C317.4515,65.087 309.1305,53.827 309.1305,42.145 C309.1305,29.711 318.0375,19.289 331.7365,19.289 C345.2675,19.289 354.6775,29.625 354.6775,45.088 L317.1995,45.088 C318.3775,52.566 324.4255,58.03 332.9165,58.03 C338.2935,58.03 343.0825,55.509 346.9475,50.97 L352.7465,55.591 Z" id="Fill-25"></path>
                <path d="M293.9063,38.6171 C293.9063,32.0621 291.2173,26.3471 283.7363,26.3471 C276.6793,26.3471 272.3943,31.1381 272.3943,39.4561 L272.3943,64.0801 L264.8303,64.0801 L264.8303,0.2141 L272.3943,0.2141 L272.3943,25.4261 L272.5603,25.4261 C274.8303,21.4741 279.7033,19.2891 284.5783,19.2891 C293.0643,19.2891 301.4703,23.9101 301.4703,35.7601 L301.4703,64.0801 L293.9063,64.0801 L293.9063,38.6171 Z" id="Fill-23"></path>
                <polygon id="Fill-21" points="249.377 20.2978 257.445 20.2978 241.311 64.0798 235.094 64.0798 223.33 29.8788 223.162 29.8788 211.395 64.0798 205.178 64.0798 189.043 20.2978 197.109 20.2978 208.115 51.9788 208.287 51.9788 219.213 20.2978 227.279 20.2978 238.203 51.9788 238.371 51.9788"></polygon>
                <path d="M145.3067,41.6865 C145.3067,50.1675 150.2837,58.1865 159.5037,58.1865 C168.9997,58.1865 173.9787,50.5335 173.9787,41.7765 C173.9787,33.1115 168.5387,26.1035 159.4137,26.1035 C150.8377,26.1035 145.3067,33.5745 145.3067,41.6865 L145.3067,41.6865 Z M180.9867,64.0805 L173.6137,64.0805 L173.6137,57.8215 L173.4257,57.8215 C169.6427,62.6145 164.5767,65.0085 158.4887,65.0085 C145.7657,65.0085 137.7457,54.2235 137.7457,42.2385 C137.7457,29.8855 145.5817,19.2815 158.5817,19.2815 C164.4867,19.2815 169.8277,22.0455 173.4257,26.6565 L173.6137,26.6565 L173.6137,20.2975 L180.9867,20.2975 L180.9867,64.0805 Z" id="Fill-31"></path>
                <polygon id="Fill-33" points="123.9024 64.08 116.5704 64.08 116.5704 27.081 108.8694 27.081 108.8694 20.298 116.5704 20.298 116.5704 0.214 123.9024 0.214 123.9024 20.298 131.6054 20.298 131.6054 27.081 123.9024 27.081"></polygon>
                <path d="M64.8633,41.6865 C64.8633,50.1675 69.8423,58.1865 79.0603,58.1865 C88.5583,58.1865 93.5373,50.5335 93.5373,41.7765 C93.5373,33.1115 88.0953,26.1035 78.9723,26.1035 C70.3943,26.1035 64.8633,33.5745 64.8633,41.6865 L64.8633,41.6865 Z M100.5453,64.0805 L93.1703,64.0805 L93.1703,57.8215 L92.9843,57.8215 C89.2013,62.6145 84.1333,65.0085 78.0473,65.0085 C65.3223,65.0085 57.3043,54.2235 57.3043,42.2385 C57.3043,29.8855 65.1403,19.2815 78.1403,19.2815 C84.0453,19.2815 89.3863,22.0455 92.9843,26.6565 L93.1703,26.6565 L93.1703,20.2975 L100.5453,20.2975 L100.5453,64.0805 Z" id="Fill-29"></path>
                <path d="M19.459,56.5156 C33.746,56.5156 43.658,45.5916 43.658,31.4746 C43.658,17.8606 32.734,7.7766 18.785,7.7766 L8.619,7.7766 L8.619,56.5156 L19.459,56.5156 Z M0.551,0.2136 L21.561,0.2136 C37.189,0.2136 52.234,13.5756 52.234,31.8946 C52.234,50.1306 37.695,64.0796 19.543,64.0796 L0.551,64.0796 L0.551,0.2136 Z" id="Fill-19"></path>
            </g>
        </g>
    </g>
</svg>