<?xml version="1.0" encoding="utf-8"?>
<!-- Generator: Adobe Illustrator 19.0.0, SVG Export Plug-In . SVG Version: 6.00 Build 0)  -->
<svg version="1.2" baseProfile="tiny" id="Layer_3" xmlns="http://www.w3.org/2000/svg" xmlns:xlink="http://www.w3.org/1999/xlink"
	 x="0px" y="0px" viewBox="0 0 254.1 100.3" xml:space="preserve">
<linearGradient id="SVGID_1_" gradientUnits="userSpaceOnUse" x1="86.3812" y1="29.6711" x2="10.1977" y2="84.0155">
	<stop  offset="5.281410e-03" style="stop-color:#F1F2F2"/>
	<stop  offset="0.3215" style="stop-color:#C5C7C9"/>
	<stop  offset="0.3858" style="stop-color:#BCBEC0"/>
	<stop  offset="0.5665" style="stop-color:#9FA1A3"/>
	<stop  offset="0.7472" style="stop-color:#808285"/>
</linearGradient>
<polygon fill="url(#SVGID_1_)" points="92.2,82 0,54.6 48.2,0.4 "/>
<linearGradient id="SVGID_2_" gradientUnits="userSpaceOnUse" x1="15.7323" y1="95.6888" x2="78.1223" y2="33.2988">
	<stop  offset="5.281410e-03" style="stop-color:#F1F2F2"/>
	<stop  offset="0.3641" style="stop-color:#CFD0D2"/>
	<stop  offset="0.6054" style="stop-color:#BCBEC0"/>
	<stop  offset="0.8003" style="stop-color:#9FA1A3"/>
	<stop  offset="0.9952" style="stop-color:#808285"/>
</linearGradient>
<polygon fill="url(#SVGID_2_)" points="92.2,82 4.2,82 48.2,0.4 "/>
<path fill="#FFFFFF" d="M115.7,27.4l13.7-25.8c0.6-1.1,1.2-1.2,2.5-1.2h5.7V41h-6.6l0-28.5l-12.1,21.9c-0.6,1-1.5,1.7-2.7,1.7h-1
	c-1.2,0-2.1-0.6-2.7-1.7l-12.2-22.1l0,28.6h-6.6V0.5h5.7c1.3,0,1.9,0.1,2.6,1.2L115.7,27.4z"/>
<rect x="140.8" y="0.5" fill="#FFFFFF" width="7.6" height="40.5"/>
<path fill="#FFFFFF" d="M158,1.7l21.1,26.9V0.5h6.6V41h-3.9c-1.2,0-1.9-0.3-2.6-1.3l-21-26.8V41h-6.7V0.5h4
	C156.8,0.5,157.2,0.6,158,1.7"/>
<path fill="#FFFFFF" d="M226.2,41h-5.8c-1.3,0-2.2-0.7-2.5-1.7l-3-8.3h-16.8l-3,8.3c-0.3,0.9-1.2,1.7-2.5,1.7h-5.9l15.9-40.5h7.7
	L226.2,41z M200,25.7h12.9l-6.5-18.3L200,25.7z"/>
<path fill="#FFFFFF" d="M249.7,7.8c-0.4,0.8-0.9,1.1-1.7,1.1c-1.5,0-3.5-2.8-8.2-2.8c-4.1,0-6.3,2.1-6.3,5.1c0,7.7,18.7,3.6,18.7,17
	c0,7.3-5.1,13.1-14.1,13.1c-5.2,0-10.2-2.1-13.3-5.3l2.2-3.6c0.4-0.5,1-0.9,1.7-0.9c1.9,0,4.1,3.7,9.6,3.7c4.3,0,6.8-2.1,6.8-5.9
	c0-8.6-18.7-2.9-18.7-17.7c0-5.9,4.8-11.6,13.3-11.6c4.8,0,8.9,1.6,11.8,4.3L249.7,7.8z"/>
<path fill="#FFFFFF" d="M119.6,75.5v-6.6H115c-0.9,0-1.4-0.5-1.4-1.3v-3.8h12.1v14.7c-3.7,2.7-7.9,3.9-13.8,3.9
	c-10.5,0-18.2-7.7-18.2-18.5c0-10.9,7.3-18.5,18.9-18.5c5.9,0,10.2,1.9,13.2,4.7l-2,3.1c-0.4,0.6-0.9,0.9-1.5,0.9
	c-0.4,0-0.8-0.1-1.2-0.4c-2.2-1.3-4.3-2.6-8.7-2.6c-7.2,0-11.7,5-11.7,12.8c0,8.3,4.9,13.2,11.9,13.2
	C115.4,77.1,117.5,76.5,119.6,75.5"/>
<polygon fill="#FFFFFF" points="152.5,45.8 152.5,51.1 136.4,51.1 136.4,61.2 149.1,61.2 149.1,66.4 136.4,66.4 136.4,76.6 
	152.5,76.6 152.5,82 129.6,82 129.6,45.8 "/>
<path fill="#FFFFFF" d="M163,67.9V82h-6.7V45.8h11.1c9.9,0,14,4.3,14,10.4c0,4.9-2.9,8.8-8,10.4c0.9,0.5,1.6,1.2,2.2,2.1l9.1,13.4
	h-6.1c-1.2,0-2-0.5-2.5-1.4l-7.6-11.6c-0.6-0.9-1.1-1.2-2.5-1.2H163z M163,63h4.2c5.1,0,7.5-2.7,7.5-6.3c0-3.7-2.4-5.7-7.4-5.7H163
	V63z"/>
<path fill="#FFFFFF" d="M218.5,82h-5.2c-1.2,0-1.9-0.7-2.3-1.5l-2.7-7.4h-15l-2.7,7.4c-0.3,0.8-1.1,1.5-2.2,1.5h-5.2l14.2-36.3h6.9
	L218.5,82z M195,68.3h11.6L200.8,52L195,68.3z"/>
<rect x="219.5" y="45.8" fill="#FFFFFF" width="6.8" height="36.3"/>
<path fill="#FFFFFF" d="M250,52.3c-0.4,0.7-0.8,1-1.5,1c-1.4,0-3.2-2.5-7.3-2.5c-3.7,0-5.6,1.9-5.6,4.6c0,6.9,16.7,3.2,16.7,15.3
	c0,6.5-4.6,11.8-12.6,11.8c-4.6,0-9.1-1.9-11.9-4.8l2-3.2c0.4-0.5,0.9-0.8,1.5-0.8c1.7,0,3.6,3.3,8.6,3.3c3.8,0,6-1.9,6-5.3
	c0-7.7-16.7-2.6-16.7-15.9c0-5.3,4.3-10.4,11.9-10.4c4.3,0,8,1.4,10.5,3.8L250,52.3z"/>
<g>
	<path fill="#D9D9D9" d="M10.8,98.6v-1.7H9.6c-0.2,0-0.4-0.1-0.4-0.3v-1h3v3.7c-0.9,0.7-2,1-3.5,1c-2.6,0-4.6-1.9-4.6-4.7
		C4.3,92.9,6.1,91,9,91c1.5,0,2.6,0.5,3.3,1.2l-0.5,0.8c-0.1,0.2-0.2,0.2-0.4,0.2c-0.1,0-0.2,0-0.3-0.1c-0.5-0.3-1.1-0.6-2.2-0.6
		c-1.8,0-2.9,1.3-2.9,3.2c0,2.1,1.2,3.3,3,3.3C9.7,98.9,10.3,98.8,10.8,98.6z"/>
	<path fill="#D9D9D9" d="M26.3,100.3c-2.8,0-4.6-2-4.6-4.7c0-2.7,1.9-4.7,4.6-4.7c2.8,0,4.6,2,4.6,4.7
		C31,98.3,29.1,100.3,26.3,100.3z M26.3,92.4c-1.8,0-2.9,1.2-2.9,3.2c0,2,1.1,3.2,2.9,3.2c1.8,0,2.9-1.2,2.9-3.2
		C29.2,93.6,28.1,92.4,26.3,92.4z"/>
	<path fill="#D9D9D9" d="M38.7,91.1H40c0.3,0,0.5,0.2,0.6,0.4l2.1,5.6c0.1,0.4,0.3,0.8,0.4,1.3c0.1-0.5,0.2-0.9,0.4-1.3l2.1-5.6
		c0.1-0.2,0.3-0.4,0.6-0.4h1.4l-3.7,9.1h-1.5L38.7,91.1z"/>
	<path fill="#D9D9D9" d="M62.4,91.1v1.3h-4V95h3.2v1.3h-3.2v2.6h4v1.4h-5.7v-9.1H62.4z"/>
	<path fill="#D9D9D9" d="M73.7,96.6v3.6H72v-9.1h2.8c2.5,0,3.5,1.1,3.5,2.6c0,1.2-0.7,2.2-2,2.6c0.2,0.1,0.4,0.3,0.6,0.5l2.3,3.4
		h-1.5c-0.3,0-0.5-0.1-0.6-0.3l-1.9-2.9c-0.1-0.2-0.3-0.3-0.6-0.3H73.7z M73.7,95.4h1.1c1.3,0,1.9-0.7,1.9-1.6
		c0-0.9-0.6-1.4-1.9-1.4h-1.1V95.4z"/>
	<path fill="#D9D9D9" d="M89.8,91.4l4.8,6.1c0-0.3,0-0.6,0-0.8v-5.5H96v9.1h-0.9c-0.3,0-0.4-0.1-0.6-0.3l-4.8-6.1c0,0.3,0,0.5,0,0.8
		v5.6h-1.5v-9.1h0.9C89.5,91.1,89.6,91.1,89.8,91.4z"/>
	<path fill="#D9D9D9" d="M110.1,100.3c-2.8,0-4.6-2-4.6-4.7c0-2.7,1.9-4.7,4.6-4.7c2.8,0,4.6,2,4.6,4.7
		C114.7,98.3,112.9,100.3,110.1,100.3z M110.1,92.4c-1.8,0-2.9,1.2-2.9,3.2c0,2,1.1,3.2,2.9,3.2c1.8,0,2.9-1.2,2.9-3.2
		C113,93.6,111.9,92.4,110.1,92.4z"/>
	<path fill="#D9D9D9" d="M138.2,100.2h-3.5v-9.1h3.5c2.8,0,4.6,1.9,4.6,4.6C142.9,98.3,141,100.2,138.2,100.2z M138.2,92.4h-1.8v6.4
		h1.8c1.8,0,2.9-1.2,2.9-3.2C141.1,93.6,140,92.4,138.2,92.4z"/>
	<path fill="#D9D9D9" d="M158.1,91.1v1.3h-4V95h3.2v1.3H154v2.6h4v1.4h-5.7v-9.1H158.1z"/>
	<path fill="#D9D9D9" d="M184.6,91.1v1.4h-2.7v7.7h-1.7v-7.7h-2.8v-1.4H184.6z"/>
	<path fill="#D9D9D9" d="M197,100.3c-2.8,0-4.6-2-4.6-4.7c0-2.7,1.9-4.7,4.6-4.7c2.8,0,4.6,2,4.6,4.7
		C201.6,98.3,199.8,100.3,197,100.3z M197,92.4c-1.8,0-2.9,1.2-2.9,3.2c0,2,1.1,3.2,2.9,3.2s2.9-1.2,2.9-3.2
		C199.9,93.6,198.8,92.4,197,92.4z"/>
	<path fill="#D9D9D9" d="M214.3,100.2h-3.5v-9.1h3.5c2.8,0,4.6,1.9,4.6,4.6C218.9,98.3,217,100.2,214.3,100.2z M214.3,92.4h-1.8v6.4
		h1.8c1.8,0,2.9-1.2,2.9-3.2C217.1,93.6,216,92.4,214.3,92.4z"/>
	<path fill="#D9D9D9" d="M231.8,100.3c-2.8,0-4.6-2-4.6-4.7c0-2.7,1.9-4.7,4.6-4.7c2.8,0,4.6,2,4.6,4.7
		C236.4,98.3,234.6,100.3,231.8,100.3z M231.8,92.4c-1.8,0-2.9,1.2-2.9,3.2c0,2,1.1,3.2,2.9,3.2s2.9-1.2,2.9-3.2
		C234.7,93.6,233.6,92.4,231.8,92.4z"/>
	<path fill="#D9D9D9" d="M249.8,92.7c-0.1,0.2-0.2,0.3-0.4,0.3c-0.3,0-0.8-0.6-1.8-0.6c-0.9,0-1.4,0.5-1.4,1.1
		c0,1.7,4.2,0.8,4.2,3.8c0,1.6-1.2,3-3.2,3c-1.2,0-2.3-0.5-3-1.2l0.5-0.8c0.1-0.1,0.2-0.2,0.4-0.2c0.4,0,0.9,0.8,2.2,0.8
		c1,0,1.5-0.5,1.5-1.3c0-1.9-4.2-0.6-4.2-4c0-1.3,1.1-2.6,3-2.6c1.1,0,2,0.4,2.6,1L249.8,92.7z"/>
</g>
</svg>
