<?xml version="1.0" encoding="utf-8"?>
<!-- Generator: Adobe Illustrator 19.0.0, SVG Export Plug-In . SVG Version: 6.00 Build 0)  -->
<svg version="1.2" baseProfile="tiny" id="Layer_1" xmlns="http://www.w3.org/2000/svg" xmlns:xlink="http://www.w3.org/1999/xlink"
	 x="0px" y="0px" viewBox="0 0 1006.3 255.1" xml:space="preserve">
<g>
	<g>
		<path fill="#FFFFFF" d="M137,67.2c-3.9-2.3-7.9-4.5-11.8-6.5c-1.3,0.8-2.6,1.7-3.9,2.5c4.7,2.1,9.4,4.6,13.9,7.3
			c44.8,26.5,66.1,60.2,56.8,87.8c0,0.1-0.1,0.1-0.1,0.1c-3.1,8.3-8.3,18.4-15.8,28.6c-1.6,2.1-3.2,4.3-5,6.4
			c-9.5,11.5-21.7,22.8-36.8,31.6c-7.4,4.3-14.9,7.8-22.5,10.5c2.1,0.7,4.2,1.3,6.4,1.9c6-2.8,12-6,17.9-9.5
			c22.6-13.3,41.2-29.1,53.5-44.6c2.8-3.5,5.3-7,7.4-10.4c2.7-4.3,4.8-8.6,6.3-12.7c0-0.1,0.1-0.1,0.1-0.2
			C213.9,129.7,186.4,96.4,137,67.2z"/>
		<path fill="#FFFFFF" d="M56.1,40.9c-4.8,0-9.3,0.5-13.3,1.5C38.1,43.7,31.6,46,26.4,52C10.9,68.8,0.1,105.2,0,147.4
			c-0.1,42.1,10.5,78.4,25.8,95.3c5.1,4.7,7.7,7.3,18.7,10.1c13.7,2.6,32.2,0.2,52.6-6.7c-4.7-1.1-9.3-2.2-13.8-3.4
			c-13.9,2-26.3,1.6-35.6-0.1c-10.1-2.5-12.4-4.9-17-9.2C16.7,218,2.5,184.9,2.6,146.7c0.1-38.4,14.5-71.3,28.6-86.5
			c4.7-5.4,10.7-7.5,14.9-8.7c2.1-0.5,4.3-0.9,6.7-1.2c1.9-0.2,3.8-0.4,5.8-0.5c13-0.6,29.2,1.5,46.1,7c1.4-1.2,2.8-2.4,4.2-3.6
			c-16.7-7-32.6-11-46.2-12C60.6,41,58.3,40.9,56.1,40.9z"/>
	</g>
	<g>
		<path fill="#FFFFFF" d="M85.3,200.8c-9.9-3.1-12.1-5.7-16.4-10.2c-5.5-6.9-10.8-16.9-15-29c-1.1-3.3-2.2-6.7-3.1-10.2
			c-3.8-14.5-5.8-31.3-4.8-49c1.1-17.4,5.1-33.5,10.5-47.2c-1.8,0.1-3.5,0.3-5.2,0.4c-4,14.1-6.8,30.2-7.9,47.4
			c-1.4,21.9,0.3,42.5,4.2,59.6c1.3,5.7,2.9,11.1,4.6,16c3.1,8.5,6.9,15.7,11.2,21.1c4.8,5,7.2,7.8,18.1,11.3
			c19.9,5,50.9,0,83.3-14.5c1.6-2,3.2-4,4.7-6.1C138,205.2,104.4,205.6,85.3,200.8z"/>
		<path fill="#FFFFFF" d="M184.9,31.3C150.4,8,114.7-3.1,92.4,0.7c-4.8,1-11.5,3-17,8.6C68.9,15.6,62.9,24.9,58,36.5
			c2.4,0,4.9,0.1,7.4,0.3c4.6-7.9,9.6-14.4,14.4-19c5-5.1,11.1-6.9,15.4-7.8c20.2-3.5,56.5,3.3,87.9,24.5
			c42.3,28.6,61.6,62.8,52.1,89.5c-0.2,0.6-0.4,1.1-0.6,1.7c0,0.1-0.1,0.1-0.1,0.1c-0.4,0.9-0.8,1.9-1.3,2.9
			c-5.3,11.1-14.5,24.4-27.4,36.8c-3,4.7-6.4,9.5-10.2,14.4c18.5-12,33.3-25.5,42.7-38.5c1.1-1.5,2.1-3,3-4.4
			c1.8-2.9,3.4-5.8,4.6-8.6c0-0.1,0.1-0.1,0.1-0.1C257.9,98.5,232.5,63.6,184.9,31.3z"/>
	</g>
	<g>
		<path fill="#FFFFFF" d="M242.9,141c-1,1.6-2.1,3.1-3.2,4.7c9.9,30.8,6.8,56.4-9.1,70.6c0,0-0.1,0-0.1,0.1
			c-15.8,13.3-46.5,28.5-82.4,28.5c-12.5,0-24.5-1.8-35.5-4.8c-2.6-0.7-5.1-1.4-7.5-2.3c-17.5-5.7-31.8-14.1-40.8-21.9
			c-7.5-7.3-8.4-10.5-10.3-16.6c-0.6-2.7-1.1-5.7-1.3-8.9c-2.4-6.8-4.5-14-6.4-21.7c-2.8,14-3.2,26.5-1.1,36.2
			c2.1,6.7,3.1,10.2,11.3,18.3c8.4,7.2,20.8,13.3,36,17.7c3.5,1,7.2,1.9,11,2.8c13.6,2.9,28.7,4.6,44.8,4.6
			c39.6,0,73.9-10,91.3-24.6c0.1,0,0.1,0,0.2-0.1C258.3,207.2,257.7,177.3,242.9,141z"/>
		<path fill="#FFFFFF" d="M71.9,110c12.4-21.8,28.9-38.4,44.4-49c1.4-1,2.8-1.9,4.2-2.7c6.6-4.1,12.9-7,18.5-8.8
			c6.7-2.3,12.9-1.1,17.2,0c19.6,6,49.2,28.6,68,61.8c2.5,4.4,4.8,8.8,6.8,13c0.6-1.2,1.1-2.4,1.6-3.6c0.1-0.1,0.1-0.1,0.2-0.2
			c0.1-0.2,0.1-0.4,0.2-0.5c-1.8-3.5-3.7-7.1-5.8-10.6c-20.7-36.6-47.9-62.7-69.5-69.3c-4.7-1.2-11.6-2.6-19,0
			c-8,2.5-16.7,7.6-25.6,14.9c-1.3,1.1-2.6,2.2-3.9,3.4c-13.9,12.4-28,30-40,51.1c-7,12.4-12.6,24.8-16.8,36.7
			c0.8,2.9,1.7,5.7,2.6,8.5C58.1,140.3,63.5,124.8,71.9,110z"/>
	</g>
</g>
<g>
	<path fill="#FFFFFF" d="M333.1,91.5c0-3.1,2.4-5.7,5.1-5.7h50.6V63.3h-55.5c-11.8,0-21.5,11.2-21.5,24.8V192h21.3v-56h40.9v-22.2
		h-40.9V91.5z"/>
	<path fill="#FFFFFF" d="M445.9,61.9c-6.3,0-12.5,4.4-14.7,11.4L392.9,192h21.2l9.6-30h43.3l9.5,30h22.6L460.4,73.3
		C458.2,66.5,452.5,61.9,445.9,61.9z M430.5,140.1L445.4,92l14.9,48.1H430.5z"/>
	<path fill="#FFFFFF" d="M584.8,68.1c-9-5-17.5-4.4-26.9-4.8h-14.7c-11.9,0-21.5,11.2-21.5,25V192h21.3v-46.5h15
		c10.1,0,20.5-1.7,28.9-7.7c10.6-7.5,14.7-20.4,14.7-34C601.7,89.4,596.3,74.5,584.8,68.1z M559.2,123.4h-16.1V91.3
		c0-3.1,0-6.1,2.7-6.1h12.6c13.6,0,21.5,2.4,21.5,19.1C579.9,118.6,569.6,123.4,559.2,123.4z"/>
	<rect x="869.4" y="63.3" fill="#FFFFFF" width="21.3" height="128.6"/>
	<path fill="#FFFFFF" d="M965.2,115.1v21.1l19.8,0.1v32.1c-3.6,1.3-7.9,1.8-12,1.8c-24,0-36.4-16.4-36.4-43c0-9.4,2.1-21,6.8-28.8
		c6.2-9.9,16.1-14.4,26.5-14.4c8.9,0,20.1,2.2,28.1,6.8h2.7V68.4c-10.4-4.1-20.5-6.5-31.8-6.5c-18,0.2-33.7,7.6-43.6,24.1
		c-7.6,12.2-10.8,26.6-10.8,40.9c0,16.6,4.1,33.1,13.6,45.6c10.7,14,25.4,19.4,41.7,19.4c12.3-0.2,24.2-2.3,36.3-6.1v-70.8H965.2z"
		/>
	<path fill="#FFFFFF" d="M653,85.7h50.2V63.3h-55.3c-11.8,0-21.3,11.2-21.3,24.8v58.5v19.6v0.9c0,13.6,9.5,24.8,21.3,24.8h0.5h54.8
		v-22.4l0,0H653c-2.7,0-5-2.6-5-5.7v-17.2V135h40.9v-21.5h-40.9v-22C647.9,88.3,650.3,85.7,653,85.7z"/>
	<path fill="#FFFFFF" d="M822.8,61.9c-7.4-0.2-11.1,4.6-16.5,11.7L784,113.8l-22.3-40.2c-5.4-7.1-9.1-11.9-16.5-11.7
		c-7.7,0.2-13.8,7.7-13.9,16.5v113.5h17.8l0.2-99.2l34.9,55.8l34.5-55.8l0.2,99.2h17.8V78.4C836.5,69.6,830.5,62.1,822.8,61.9z"/>
</g>
</svg>
