<svg width="462" height="104" viewBox="0 0 462 104" xmlns="http://www.w3.org/2000/svg"><title>Codelife</title><g fill="#fff"><path id="e" d="M418 103v-102h44v13.864h-29v29.709h25v13.864h-25v29.709h29v14.854z"/><path d="M356 103v-102h44v13.864h-29v30.699h25v13.864h-25v43.573z"/><path d="M323 103v-102h15v102z"/><path d="M261 103v-102h15v87.146h29v14.854z"/><path d="M199 103v-102h44v13.864h-29v29.709h25v13.864h-25v29.709h29v14.854z"/><path d="M133 103v-102h21.964c8.533 0 15.006 2.292 19.418 6.876 4.412 4.584 6.618 11.079 6.618 19.483v47.705c0 9.551-2.351 16.594-7.055 21.131-4.703 4.537-11.467 6.805-20.291 6.805h-20.655zm14.836-88.247v74.494h6.836c4.17 0 7.127-1.027 8.873-3.08 1.745-2.053 2.618-5.277 2.618-9.67v-49.138c0-4.011-.824-7.115-2.473-9.312-1.648-2.197-4.655-3.295-9.018-3.295h-6.836z"/><path d="M66 24.994c0-4.118.716-7.757 2.149-10.917s3.343-5.794 5.731-7.901c2.292-2.011 4.895-3.543 7.808-4.597 2.913-1.053 5.85-1.58 8.811-1.58 2.961 0 5.898.527 8.811 1.58 2.913 1.053 5.564 2.586 7.952 4.597 2.292 2.107 4.155 4.74 5.588 7.901 1.433 3.16 2.149 6.799 2.149 10.917v54.011c0 4.309-.716 7.996-2.149 11.061-1.433 3.064-3.295 5.602-5.588 7.613-2.388 2.107-5.038 3.687-7.952 4.74-2.913 1.053-5.85 1.58-8.811 1.58-2.961 0-5.898-.527-8.811-1.58-2.913-1.053-5.516-2.634-7.808-4.74-2.388-2.011-4.298-4.549-5.731-7.613-1.433-3.064-2.149-6.751-2.149-11.061v-54.011zm14.614 54.011c0 3.543.979 6.153 2.937 7.829 1.958 1.676 4.274 2.514 6.949 2.514 2.674 0 4.991-.838 6.949-2.514 1.958-1.676 2.937-4.285 2.937-7.829v-54.011c0-3.543-.979-6.153-2.937-7.829-1.958-1.676-4.274-2.514-6.949-2.514-2.674 0-4.991.838-6.949 2.514-1.958 1.676-2.937 4.285-2.937 7.829v54.011z"/><path d="M48 73.978v6.32c0 3.16-.606 6.153-1.818 8.978-1.212 2.825-2.885 5.339-5.018 7.541-2.133 2.203-4.63 3.95-7.491 5.243-2.861 1.293-5.939 1.939-9.236 1.939-2.812 0-5.673-.383-8.582-1.149-2.909-.766-5.527-2.107-7.855-4.022-2.327-1.915-4.242-4.381-5.745-7.398-1.503-3.017-2.255-6.871-2.255-11.564v-56.309c0-3.352.582-6.464 1.745-9.337 1.164-2.873 2.812-5.363 4.945-7.47 2.133-2.107 4.679-3.759 7.636-4.956 2.958-1.197 6.23-1.796 9.818-1.796 6.982 0 12.655 2.25 17.018 6.751 2.133 2.203 3.806 4.812 5.018 7.829 1.212 3.017 1.818 6.296 1.818 9.84v5.746h-14.836v-4.884c0-2.873-.824-5.363-2.473-7.47-1.648-2.107-3.879-3.16-6.691-3.16-3.685 0-6.133 1.125-7.345 3.376-1.212 2.25-1.818 5.099-1.818 8.547v52.287c0 2.969.655 5.459 1.964 7.47s3.661 3.017 7.055 3.017c.97 0 2.012-.168 3.127-.503 1.115-.335 2.158-.886 3.127-1.652.873-.766 1.6-1.82 2.182-3.16.582-1.341.873-3.017.873-5.028v-5.028h14.836z"/></g></svg>
